<svg width="169" height="151" viewBox="0 0 169 151" fill="none" xmlns="http://www.w3.org/2000/svg">
<path d="M121.181 29.1393L85.4815 15.9919L50.1332 28.9661C45.6195 31.1547 41.6622 32.4616 41.6622 36.7758V58.2472C41.6622 73.158 45.4726 87.9324 53.3085 100.975C59.9005 111.949 70.114 123.254 85.8331 130.44C100.282 125.627 111.068 112.789 117.665 101.815C125.501 88.7722 129.311 73.9925 129.311 59.0869V39.7779C129.306 33.6215 126.131 30.6194 121.181 29.1393Z" fill="#F5E09E"/>
<g opacity="0.8">
<path d="M121.181 29.1393L85.4815 15.9919L50.1332 28.9661C45.6195 31.1547 41.6622 32.4616 41.6622 36.7758V58.2472C41.6622 73.158 45.4726 87.9324 53.3085 100.975C59.9005 111.949 70.114 123.254 85.8331 130.44C100.282 125.627 111.068 112.789 117.665 101.815C125.501 88.7722 129.311 73.9925 129.311 59.0869V39.7779C129.306 33.6215 126.131 30.6194 121.181 29.1393Z" fill="#F5E09E"/>
</g>
<path d="M129.616 122.111C129.616 122.111 129.757 121.911 130.041 121.539C130.114 121.444 130.193 121.339 130.282 121.224C130.361 121.103 130.434 120.961 130.524 120.809C130.697 120.505 130.912 120.163 131.064 119.728C131.148 119.513 131.248 119.292 131.332 119.051C131.4 118.804 131.474 118.547 131.547 118.274C131.636 118.006 131.678 117.712 131.726 117.408C131.768 117.104 131.846 116.789 131.857 116.453C131.998 115.12 131.914 113.566 131.647 111.85C131.117 108.407 129.652 104.35 127.417 99.9412C125.186 95.522 122.11 90.7721 118.337 85.8228C114.558 80.8683 110.018 75.7511 104.796 70.6128C99.5683 65.4798 93.6533 60.3259 87.0193 55.4396C83.7023 52.999 80.2015 50.6372 76.5119 48.4066C72.8275 46.1761 68.9384 44.0924 64.8393 42.287C60.7403 40.5025 56.4156 38.9542 51.8547 38.2142C49.5821 37.8625 47.236 37.6946 44.932 38.0462C43.7826 38.2247 42.6489 38.5343 41.5887 39.0172C40.539 39.5263 39.5786 40.2086 38.7808 41.0693C38.0145 41.9563 37.4477 42.9902 37.0541 44.0924C36.7024 45.2051 36.5135 46.365 36.4715 47.5249C36.3823 49.8552 36.8179 52.1698 37.4267 54.3899C38.6758 58.8406 40.7122 62.9606 42.9481 66.8339C45.2101 70.702 47.7189 74.3287 50.3589 77.735C52.9936 81.1465 55.7438 84.3585 58.5412 87.3764C64.1518 93.4121 69.9461 98.7025 75.6406 103.311C81.3405 107.914 86.9406 111.845 92.294 115.03C97.6421 118.216 102.712 120.73 107.357 122.446C111.991 124.168 116.185 125.155 119.665 125.291C121.402 125.359 122.955 125.27 124.262 124.976C124.593 124.929 124.897 124.808 125.196 124.735C125.496 124.656 125.779 124.577 126.036 124.457C126.299 124.352 126.545 124.252 126.787 124.157C127.018 124.047 127.222 123.921 127.427 123.811C127.842 123.612 128.157 123.36 128.435 123.15C128.571 123.045 128.708 122.956 128.818 122.861C128.923 122.761 129.017 122.667 129.101 122.588C129.437 122.273 129.616 122.111 129.616 122.111C129.616 122.111 129.448 122.284 129.117 122.62C129.033 122.704 128.939 122.798 128.834 122.898C128.723 122.992 128.592 123.087 128.451 123.192C128.172 123.402 127.857 123.659 127.443 123.864C127.243 123.974 127.033 124.1 126.803 124.215C126.566 124.315 126.314 124.415 126.052 124.525C125.795 124.646 125.506 124.724 125.207 124.808C124.908 124.887 124.603 125.008 124.267 125.055C122.955 125.359 121.391 125.459 119.649 125.396C116.153 125.275 111.939 124.299 107.289 122.588C102.628 120.882 97.5477 118.379 92.1838 115.198C86.8146 112.013 81.204 108.087 75.4884 103.489C69.7834 98.881 63.9734 93.5905 58.347 87.5496C55.5391 84.5265 52.7837 81.3144 50.1437 77.8977C47.4985 74.4862 44.9792 70.849 42.7119 66.9704C40.4656 63.0866 38.4186 58.9508 37.159 54.4634C36.5502 52.2275 36.1041 49.892 36.1933 47.5197C36.2353 46.3335 36.4295 45.1526 36.7916 44.0084C37.1905 42.88 37.7836 41.8093 38.5709 40.8909C39.3949 39.9986 40.3921 39.2953 41.468 38.7705C42.5597 38.2771 43.7196 37.957 44.89 37.7785C47.236 37.4216 49.6083 37.5948 51.8967 37.9517C56.4943 38.697 60.8348 40.2558 64.9496 42.0455C69.0591 43.8562 72.9534 45.9451 76.6483 48.1862C80.3433 50.422 83.8492 52.7943 87.1715 55.2401C93.8108 60.1369 99.731 65.3066 104.958 70.4554C110.181 75.6093 114.721 80.7371 118.494 85.7074C122.268 90.6724 125.333 95.4432 127.558 99.8782C129.784 104.303 131.237 108.375 131.757 111.839C132.014 113.566 132.098 115.13 131.946 116.469C131.935 116.804 131.846 117.119 131.804 117.429C131.757 117.733 131.71 118.027 131.615 118.3C131.537 118.573 131.463 118.836 131.395 119.082C131.306 119.324 131.206 119.544 131.117 119.759C130.959 120.195 130.739 120.536 130.56 120.84C130.471 120.987 130.398 121.134 130.314 121.255C130.224 121.371 130.141 121.476 130.067 121.565C129.768 121.927 129.616 122.111 129.616 122.111Z" fill="#957000"/>
<path d="M146.416 81.5556C146.416 81.5556 146.39 81.3142 146.353 80.847C146.342 80.7316 146.332 80.6004 146.321 80.4534C146.3 80.3117 146.258 80.1542 146.227 79.9863C146.153 79.6451 146.085 79.2463 145.912 78.8211C145.833 78.606 145.76 78.375 145.665 78.1388C145.55 77.9079 145.434 77.6665 145.308 77.4146C145.193 77.1574 145.036 76.9055 144.868 76.6483C144.694 76.3911 144.547 76.1024 144.332 75.8453C143.55 74.7536 142.453 73.6514 141.11 72.5492C138.423 70.3344 134.633 68.277 130.03 66.4768C125.422 64.6661 119.969 63.165 113.855 61.9841C107.74 60.8032 100.943 60.0055 93.6271 59.6486C86.3107 59.2969 78.4643 59.3914 70.261 60.1577C66.1619 60.546 61.9737 61.1129 57.7382 61.9054C53.5027 62.6927 49.2147 63.7266 44.9529 65.107C40.7069 66.5083 36.4452 68.2245 32.5509 70.7123C30.6194 71.9614 28.7562 73.3995 27.2709 75.1945C26.5309 76.092 25.8958 77.0787 25.4182 78.1441C24.9774 79.2253 24.7097 80.3747 24.6887 81.5451C24.7097 82.7155 24.9721 83.8702 25.413 84.9461C25.8906 86.0115 26.5204 86.9982 27.2657 87.8957C28.751 89.6959 30.6142 91.1288 32.5456 92.3831C36.44 94.8709 40.7017 96.5924 44.9477 97.9937C49.2094 99.3741 53.4974 100.408 57.7329 101.195C61.9684 101.988 66.1567 102.555 70.2557 102.943C78.459 103.709 86.3055 103.804 93.6218 103.452C100.938 103.095 107.735 102.297 113.849 101.117C119.964 99.9356 125.417 98.4346 130.025 96.6239C134.628 94.8237 138.417 92.7663 141.104 90.5514C142.448 89.4492 143.545 88.3471 144.327 87.2554C144.542 86.9982 144.689 86.7096 144.862 86.4524C145.03 86.1952 145.193 85.9433 145.303 85.6861C145.429 85.4342 145.55 85.1928 145.66 84.9618C145.755 84.7256 145.828 84.4947 145.907 84.2795C146.08 83.8544 146.148 83.4555 146.222 83.1144C146.258 82.9464 146.295 82.789 146.316 82.6473C146.327 82.5003 146.337 82.3691 146.348 82.2536C146.39 81.7918 146.416 81.5556 146.416 81.5556C146.416 81.5556 146.411 81.797 146.379 82.2641C146.374 82.3848 146.363 82.5161 146.353 82.6578C146.337 82.8047 146.295 82.9569 146.264 83.1301C146.195 83.4713 146.133 83.8754 145.959 84.3058C145.881 84.521 145.812 84.7571 145.718 84.9933C145.608 85.2242 145.487 85.4709 145.366 85.7229C145.251 85.9853 145.093 86.2372 144.925 86.4996C144.752 86.7568 144.605 87.0507 144.39 87.3079C143.613 88.4101 142.511 89.5227 141.173 90.6354C138.48 92.8712 134.691 94.9496 130.083 96.7656C125.469 98.592 120.011 100.109 113.891 101.305C107.766 102.502 100.964 103.31 93.6375 103.678C86.3107 104.04 78.4538 103.956 70.2347 103.195C66.1252 102.807 61.9317 102.245 57.6857 101.452C53.4397 100.665 49.1412 99.6312 44.8637 98.2456C40.602 96.8443 36.3245 95.1176 32.3987 92.6088C30.4515 91.3439 28.5673 89.8954 27.0557 88.0689C26.3 87.1557 25.6544 86.1427 25.1663 85.0511C24.7149 83.9436 24.442 82.7522 24.421 81.5398C24.442 80.3274 24.7149 79.1413 25.1715 78.0286C25.6597 76.9317 26.3105 75.924 27.0662 75.0108C28.583 73.1843 30.4672 71.7357 32.4092 70.4761C36.335 67.9726 40.6125 66.2459 44.8742 64.8445C49.1465 63.4589 53.4449 62.425 57.6909 61.6377C61.9369 60.8452 66.1304 60.2836 70.24 59.8952C78.4538 59.1342 86.316 59.0502 93.6375 59.4124C100.964 59.7798 107.766 60.588 113.891 61.7847C120.011 62.9813 125.475 64.4981 130.088 66.3246C134.696 68.1458 138.491 70.2189 141.178 72.4548C142.522 73.5674 143.619 74.6801 144.401 75.7823C144.616 76.0395 144.763 76.3334 144.936 76.5905C145.104 76.853 145.261 77.1049 145.377 77.3673C145.503 77.6245 145.618 77.8659 145.728 78.0969C145.823 78.333 145.896 78.5692 145.97 78.7844C146.143 79.2148 146.206 79.6137 146.274 79.9601C146.306 80.1333 146.348 80.2855 146.363 80.4324C146.374 80.5794 146.379 80.7106 146.39 80.826C146.411 81.3142 146.416 81.5556 146.416 81.5556Z" fill="#957000"/>
<path d="M124.157 31.0708C124.157 31.0708 123.953 30.9448 123.559 30.6877C123.459 30.6247 123.349 30.5512 123.228 30.4725C123.102 30.399 122.955 30.336 122.798 30.2625C122.483 30.1103 122.126 29.9214 121.685 29.8007C121.465 29.7324 121.239 29.6485 120.992 29.5802C120.741 29.5278 120.478 29.4753 120.2 29.4175C119.927 29.3493 119.633 29.3231 119.323 29.2968C119.014 29.2758 118.699 29.2181 118.363 29.2286C117.025 29.1761 115.476 29.3703 113.786 29.7587C110.385 30.525 106.444 32.2622 102.198 34.7972C97.9465 37.327 93.4171 40.7227 88.7355 44.827C84.0539 48.9365 79.2621 53.8176 74.4965 59.3809C69.7361 64.9495 65.002 71.2057 60.5828 78.1599C58.3785 81.6396 56.2581 85.2925 54.29 89.1291C52.3165 92.9605 50.5058 96.9808 48.989 101.195C47.4932 105.41 46.2441 109.829 45.8242 114.432C45.63 116.725 45.6248 119.077 46.1286 121.355C46.3858 122.488 46.7742 123.596 47.3253 124.624C47.9078 125.632 48.6531 126.551 49.5663 127.285C50.5058 127.989 51.5765 128.487 52.6997 128.797C53.8333 129.07 55.0037 129.18 56.1689 129.143C58.4992 129.07 60.777 128.477 62.9499 127.721C67.3009 126.167 71.2739 123.853 74.9846 121.355C78.69 118.835 82.133 116.08 85.3503 113.214C88.5728 110.354 91.5854 107.388 94.4038 104.386C100.035 98.3769 104.916 92.2257 109.12 86.232C113.319 80.2278 116.851 74.3705 119.665 68.8124C122.478 63.2543 124.635 58.0268 126.026 53.277C127.422 48.5376 128.12 44.2811 128.015 40.8014C127.962 39.0642 127.768 37.5211 127.385 36.2353C127.317 35.9099 127.175 35.616 127.081 35.322C126.981 35.0281 126.881 34.75 126.745 34.5033C126.624 34.2514 126.503 34.0047 126.393 33.779C126.267 33.5586 126.125 33.3591 126.005 33.1649C125.774 32.7661 125.501 32.4669 125.28 32.2045C125.165 32.0733 125.071 31.9473 124.966 31.8423C124.855 31.7426 124.761 31.6586 124.672 31.5747C124.33 31.2388 124.157 31.0708 124.157 31.0708C124.157 31.0708 124.341 31.223 124.698 31.5327C124.787 31.6114 124.887 31.6954 124.997 31.7951C125.102 31.9001 125.202 32.026 125.317 32.1572C125.543 32.4197 125.826 32.7188 126.057 33.1177C126.183 33.3119 126.325 33.5113 126.451 33.7318C126.566 33.9627 126.687 34.2041 126.813 34.4613C126.949 34.7132 127.054 34.9914 127.154 35.2853C127.254 35.5792 127.396 35.8731 127.464 36.2038C127.857 37.4949 128.062 39.0432 128.125 40.7857C128.246 44.2811 127.558 48.5534 126.178 53.3085C124.798 58.0741 122.651 63.3173 119.843 68.8911C117.035 74.465 113.508 80.338 109.309 86.3527C105.105 92.3622 100.224 98.5238 94.5875 104.549C91.7639 107.556 88.7513 110.527 85.5235 113.398C82.3009 116.274 78.8474 119.035 75.1368 121.565C71.4156 124.073 67.4321 126.398 63.0444 127.962C60.8558 128.729 58.5569 129.327 56.1794 129.406C54.9932 129.442 53.8018 129.332 52.6367 129.049C51.482 128.729 50.3746 128.214 49.4036 127.485C48.4589 126.724 47.6874 125.779 47.0891 124.74C46.5222 123.685 46.1234 122.551 45.8662 121.397C45.3519 119.077 45.3623 116.704 45.5565 114.395C45.9817 109.756 47.2413 105.321 48.7423 101.096C50.2644 96.8706 52.0804 92.8398 54.0643 89.0032C56.0377 85.1613 58.1633 81.5031 60.3729 78.0182C64.8026 71.0587 69.5524 64.7973 74.3233 59.2287C79.1046 53.6654 83.9122 48.7843 88.6095 44.6748C93.3069 40.5705 97.8521 37.18 102.119 34.6555C106.381 32.1257 110.343 30.399 113.76 29.6432C115.466 29.2653 117.019 29.0764 118.363 29.1394C118.699 29.1289 119.019 29.1919 119.329 29.2129C119.638 29.2391 119.932 29.2706 120.21 29.3388C120.489 29.3965 120.751 29.4543 121.003 29.5068C121.25 29.5802 121.481 29.6642 121.696 29.7377C122.142 29.8637 122.499 30.0631 122.808 30.2153C122.966 30.294 123.113 30.3623 123.239 30.4357C123.36 30.5197 123.47 30.5932 123.564 30.6614C123.963 30.9291 124.157 31.0708 124.157 31.0708Z" fill="#957000"/>
<path d="M23.8857 106.701C24.7674 107.583 24.7674 109.015 23.8857 109.902C23.0039 110.784 21.5711 110.784 20.6841 109.902C19.8024 109.021 19.8024 107.588 20.6841 106.701C21.5711 105.819 23.0039 105.819 23.8857 106.701Z" fill="#957000"/>
<path d="M151.565 36.5814C151.565 37.8305 150.552 38.8435 149.303 38.8435C148.053 38.8435 147.04 37.8305 147.04 36.5814C147.04 35.3323 148.053 34.3193 149.303 34.3193C150.552 34.3193 151.565 35.327 151.565 36.5814Z" fill="#957000"/>
<path d="M38.1772 114.143C38.1772 114.463 37.92 114.721 37.5999 114.721C37.2797 114.721 37.0226 114.463 37.0226 114.143C37.0226 113.823 37.2797 113.566 37.5999 113.566C37.92 113.566 38.1772 113.823 38.1772 114.143Z" fill="#957000"/>
<path d="M50.4533 50.7314C50.4533 51.0515 50.1961 51.3087 49.876 51.3087C49.5558 51.3087 49.2987 51.0515 49.2987 50.7314C49.2987 50.4112 49.5558 50.1541 49.876 50.1541C50.1961 50.1541 50.4533 50.4112 50.4533 50.7314Z" fill="#957000"/>
<path d="M140.197 81.5556C140.197 81.8758 139.939 82.1329 139.619 82.1329C139.299 82.1329 139.042 81.8758 139.042 81.5556C139.042 81.2354 139.299 80.9783 139.619 80.9783C139.939 80.9783 140.197 81.2354 140.197 81.5556Z" fill="#957000"/>
<path d="M148.19 54.7414C148.19 55.0616 147.933 55.3187 147.613 55.3187C147.292 55.3187 147.035 55.0616 147.035 54.7414C147.035 54.4212 147.292 54.1641 147.613 54.1641C147.933 54.1693 148.19 54.4265 148.19 54.7414Z" fill="#957000"/>
<path d="M84.2925 46.7905C71.2954 46.7905 60.7539 57.612 60.7539 70.9664C60.7539 84.3154 71.2901 95.1423 84.2925 95.1423C97.2896 95.1423 107.831 84.3208 107.831 70.9664C107.831 57.612 97.2948 46.7905 84.2925 46.7905ZM84.2925 91.5207C73.242 91.5207 64.28 82.3214 64.28 70.9664C64.28 59.6168 73.2368 50.4121 84.2925 50.4121C95.3429 50.4121 104.305 59.6114 104.305 70.9664C104.305 82.316 95.3482 91.5207 84.2925 91.5207Z" fill="#F1B600"/>
<path d="M84.4027 84.9299C83.4162 84.9299 82.4717 84.5257 81.7739 83.809L70.7601 72.4971C69.3067 71.0043 69.3067 68.5845 70.7601 67.0917C72.2136 65.5989 74.5696 65.5989 76.023 67.0917L84.4027 75.6982L105.024 54.5188C106.477 53.026 108.833 53.026 110.287 54.5188C111.74 56.0116 111.74 58.4313 110.287 59.9241L87.0367 83.8036C86.3389 84.5311 85.3891 84.9299 84.4027 84.9299Z" fill="#BF8F00"/>
</svg>
