<svg width="104" height="90" viewBox="0 0 104 90" fill="none" xmlns="http://www.w3.org/2000/svg">
<path d="M79.5496 10.3389L51.4757 0L23.6783 10.2027C20.1288 11.9238 17.0168 12.9515 17.0168 16.3441V33.2289C17.0168 44.9546 20.0133 56.573 26.1753 66.8293C31.3592 75.4595 39.391 84.3497 51.7522 90C63.1147 86.2153 71.5963 76.1199 76.7843 67.4897C82.9464 57.2333 85.9428 45.6108 85.9428 33.8893V18.7049C85.9387 13.8636 83.4417 11.5028 79.5496 10.3389Z" fill="#FFF0C0"/>
<path d="M79.5496 10.3389L51.4757 0L23.6783 10.2027C20.1288 11.9238 17.0168 12.9515 17.0168 16.3441V33.2289C17.0168 44.9546 20.0133 56.573 26.1753 66.8293C31.3592 75.4595 39.391 84.3497 51.7522 90C63.1147 86.2153 71.5963 76.1199 76.7843 67.4897C82.9464 57.2333 85.9428 45.6108 85.9428 33.8893V18.7049C85.9387 13.8636 83.4417 11.5028 79.5496 10.3389Z" fill="#FFF0C0"/>
<path d="M68.6205 53.0813H63.4614V25.0074C63.4614 18.3996 58.0835 13.0217 51.4757 13.0217C44.8679 13.0217 39.49 18.3996 39.49 25.0074V53.0813H34.3309V25.0074C34.3309 15.5559 42.02 7.8667 51.4716 7.8667C60.9231 7.8667 68.6123 15.5559 68.6123 25.0074V53.0813H68.6205Z" fill="#FFBF00"/>
<path d="M72.1825 70.2387H30.7732C29.4483 70.2387 28.3752 69.1656 28.3752 67.8408V42.9944C28.3752 41.6695 29.4483 40.5964 30.7732 40.5964H72.1825C73.5073 40.5964 74.5804 41.6695 74.5804 42.9944V67.8408C74.5804 69.1615 73.5073 70.2387 72.1825 70.2387Z" fill="#E4BC45"/>
<g opacity="0.5">
<path d="M55.3389 51.5543C55.3389 49.4205 53.6096 47.6912 51.4758 47.6912C49.3419 47.6912 47.6126 49.4205 47.6126 51.5543C47.6126 53.3208 48.8054 54.7901 50.4192 55.2524V61.0265H52.5282V55.2524C54.1503 54.7901 55.3389 53.3167 55.3389 51.5543Z" fill="url(#paint0_linear_561_1108)"/>
</g>
<path d="M30.8393 67.4236C30.732 67.4236 30.6495 62.4791 30.6495 56.3831C30.6495 50.2829 30.7361 45.3425 30.8393 45.3425C30.9466 45.3425 31.0292 50.287 31.0292 56.3831C31.0292 62.4832 30.9466 67.4236 30.8393 67.4236Z" fill="#FAFAFA"/>
<path d="M48.4545 56.503C48.4422 56.5237 48.273 56.4411 48.0006 56.2472C47.7282 56.0532 47.3649 55.7189 47.0059 55.2318C46.2836 54.2867 45.6273 52.5697 46.0566 50.7166C46.5065 48.8675 47.8644 47.6293 48.9292 47.1093C49.4699 46.8369 49.9445 46.7007 50.2747 46.647C50.6049 46.5934 50.7906 46.5975 50.7947 46.6223C50.8112 46.6966 50.0642 46.7667 49.0613 47.3487C48.0748 47.9059 46.8449 49.0987 46.4281 50.8074C46.0318 52.5161 46.5973 54.1381 47.2287 55.0791C47.8602 56.049 48.4999 56.4453 48.4545 56.503Z" fill="#FAFAFA"/>
<path d="M86.1822 83.4501C86.1822 83.4501 86.2937 83.2933 86.5165 83.0003C86.5743 82.926 86.6363 82.8434 86.7064 82.7526C86.7683 82.6577 86.8261 82.5463 86.8963 82.4266C87.0325 82.1872 87.2017 81.9189 87.3214 81.5763C87.3874 81.4071 87.4658 81.2338 87.5319 81.0439C87.5855 80.8499 87.6433 80.6477 87.7011 80.4331C87.7713 80.2226 87.8043 79.9915 87.8414 79.7521C87.8744 79.5127 87.9364 79.2651 87.9446 79.0009C88.056 77.9526 87.99 76.7309 87.7795 75.3813C87.3626 72.6737 86.2111 69.4833 84.4529 66.0164C82.6988 62.5412 80.2802 58.806 77.3127 54.914C74.341 51.0178 70.7709 46.9937 66.6642 42.953C62.5534 38.9165 57.902 34.8635 52.685 31.021C50.0766 29.1018 47.3237 27.2445 44.4222 25.4904C41.5248 23.7363 38.4665 22.0978 35.2431 20.678C32.0196 19.2747 28.6187 18.0571 25.0321 17.4752C23.245 17.1986 21.4001 17.0666 19.5882 17.3431C18.6843 17.4834 17.7928 17.7269 16.9591 18.1067C16.1336 18.507 15.3783 19.0436 14.751 19.7204C14.1484 20.4179 13.7027 21.231 13.3931 22.0978C13.1166 22.9727 12.968 23.8849 12.935 24.797C12.8648 26.6295 13.2074 28.4497 13.6861 30.1955C14.6684 33.6955 16.2698 36.9354 18.0281 39.9814C19.8069 43.0232 21.7798 45.8752 23.8558 48.5538C25.9277 51.2365 28.0904 53.7624 30.2903 56.1356C34.7024 60.882 39.2589 65.0424 43.737 68.6661C48.2193 72.2858 52.6231 75.3771 56.833 77.8824C61.0387 80.3877 65.0257 82.3647 68.6783 83.7143C72.3228 85.068 75.6205 85.844 78.3569 85.9513C79.723 86.0049 80.9447 85.9348 81.9724 85.7036C82.2324 85.6665 82.4718 85.5716 82.7071 85.5138C82.9423 85.4519 83.1652 85.39 83.3674 85.295C83.5738 85.2125 83.7678 85.1341 83.9576 85.0598C84.1392 84.9731 84.3002 84.8741 84.4612 84.7874C84.7872 84.6305 85.0349 84.4324 85.2536 84.2673C85.3609 84.1848 85.4682 84.1146 85.5549 84.0403C85.6374 83.9619 85.7117 83.8876 85.7778 83.8257C86.0419 83.5781 86.1822 83.4501 86.1822 83.4501C86.1822 83.4501 86.0502 83.5863 85.7902 83.8505C85.7241 83.9165 85.6498 83.9908 85.5673 84.0692C85.4806 84.1435 85.3774 84.2178 85.266 84.3004C85.0472 84.4655 84.7996 84.6677 84.4735 84.8287C84.3167 84.9153 84.1516 85.0144 83.97 85.1052C83.7843 85.1836 83.5862 85.262 83.3798 85.3487C83.1776 85.4436 82.9506 85.5055 82.7153 85.5716C82.48 85.6335 82.2407 85.7284 81.9765 85.7655C80.9447 86.0049 79.7148 86.0834 78.3445 86.0338C75.5957 85.9389 72.2815 85.1712 68.6247 83.8257C64.9597 82.4844 60.9644 80.5156 56.7463 78.0145C52.5241 75.5092 48.112 72.422 43.6173 68.8065C39.131 65.1827 34.5621 61.0224 30.1376 56.2718C27.9295 53.8945 25.7626 51.3686 23.6866 48.6817C21.6064 45.999 19.6253 43.1388 17.8423 40.0887C16.0759 37.0345 14.4662 33.7822 13.4756 30.2533C12.9969 28.4951 12.6461 26.6584 12.7162 24.7929C12.7492 23.8601 12.902 22.9315 13.1867 22.0317C13.5004 21.1444 13.9668 20.3024 14.5859 19.5801C15.2339 18.8785 16.0181 18.3254 16.8642 17.9127C17.7227 17.5247 18.6348 17.2729 19.5552 17.1326C21.4001 16.852 23.2656 16.9882 25.0651 17.2688C28.6806 17.8549 32.0939 19.0807 35.3297 20.4881C38.5614 21.912 41.6239 23.5547 44.5295 25.3171C47.4351 27.0753 50.1922 28.9408 52.8047 30.8642C58.0258 34.7149 62.6814 38.7803 66.7922 42.8292C70.8988 46.8822 74.4689 50.9146 77.4365 54.8232C80.404 58.7276 82.8144 62.4793 84.5643 65.9669C86.3143 69.4462 87.4576 72.649 87.8662 75.373C88.0684 76.7309 88.1345 77.9608 88.0148 79.0133C88.0065 79.2774 87.9363 79.5251 87.9033 79.7686C87.8662 80.008 87.829 80.2391 87.7547 80.4537C87.6928 80.6683 87.6351 80.8747 87.5814 81.0687C87.5112 81.2585 87.4328 81.4319 87.3627 81.6011C87.2388 81.9437 87.0655 82.2119 86.9252 82.4513C86.855 82.5669 86.7972 82.6825 86.7312 82.7774C86.661 82.8682 86.595 82.9507 86.5372 83.0209C86.3019 83.3057 86.1822 83.4501 86.1822 83.4501Z" fill="#DBA400"/>
<path d="M99.3937 51.5584C99.3937 51.5584 99.3731 51.3685 99.3442 51.0012C99.336 50.9104 99.3277 50.8072 99.3195 50.6916C99.3029 50.5802 99.2699 50.4564 99.2452 50.3243C99.1874 50.056 99.1337 49.7423 98.9975 49.408C98.9356 49.2388 98.8778 49.0572 98.8035 48.8715C98.7127 48.6899 98.6219 48.5 98.5229 48.3019C98.4321 48.0997 98.3083 47.9016 98.1762 47.6993C98.04 47.4971 97.9244 47.2701 97.7552 47.0678C97.1402 46.2094 96.2776 45.3426 95.221 44.4759C93.1079 42.7342 90.1279 41.1163 86.5083 39.7006C82.8845 38.2767 78.5963 37.0963 73.7879 36.1676C68.9796 35.239 63.6348 34.6116 57.8813 34.331C52.1279 34.0544 45.9575 34.1287 39.5066 34.7313C36.2831 35.0367 32.9895 35.4825 29.6588 36.1057C26.3281 36.7248 22.9561 37.5379 19.6047 38.6234C16.2657 39.7254 12.9143 41.075 9.85187 43.0313C8.33302 44.0136 6.86783 45.1445 5.6998 46.5561C5.11785 47.2618 4.61845 48.0378 4.24286 48.8756C3.89617 49.7258 3.68568 50.6297 3.66918 51.5501C3.68568 52.4705 3.89205 53.3785 4.23875 54.2246C4.61433 55.0624 5.10961 55.8384 5.69568 56.5441C6.86371 57.9598 8.3289 59.0866 9.84775 60.073C12.9102 62.0293 16.2616 63.3831 19.6006 64.4851C22.9519 65.5705 26.3239 66.3836 29.6547 67.0027C32.9854 67.6259 36.279 68.0717 39.5024 68.3771C45.9534 68.9797 52.1237 69.054 57.8772 68.7775C63.6307 68.4968 68.9755 67.8695 73.7838 66.9408C78.5921 66.0122 82.8804 64.8318 86.5042 63.4078C90.1238 61.9922 93.1037 60.3743 95.2169 58.6326C96.2735 57.7658 97.1361 56.8991 97.7511 56.0406C97.9203 55.8384 98.0359 55.6114 98.1721 55.4091C98.3041 55.2069 98.4321 55.0088 98.5188 54.8065C98.6178 54.6084 98.7127 54.4186 98.7994 54.237C98.8737 54.0512 98.9315 53.8696 98.9934 53.7004C99.1296 53.3661 99.1833 53.0524 99.241 52.7842C99.2699 52.6521 99.2988 52.5283 99.3153 52.4168C99.3236 52.3013 99.3318 52.1981 99.3401 52.1073C99.3731 51.7441 99.3937 51.5584 99.3937 51.5584C99.3937 51.5584 99.3896 51.7482 99.3649 52.1155C99.3607 52.2105 99.3525 52.3137 99.3442 52.4251C99.3318 52.5407 99.2988 52.6603 99.2741 52.7965C99.2204 53.0648 99.1709 53.3826 99.0347 53.7211C98.9728 53.8903 98.9191 54.076 98.8448 54.2617C98.7581 54.4433 98.6632 54.6373 98.5683 54.8354C98.4775 55.0418 98.3537 55.2399 98.2216 55.4463C98.0854 55.6485 97.9698 55.8796 97.8006 56.0819C97.1898 56.9486 96.323 57.8236 95.2706 58.6986C93.1533 60.4568 90.1733 62.0912 86.5496 63.5193C82.9217 64.9556 78.6293 66.1484 73.8168 67.0894C69.0003 68.0304 63.6513 68.666 57.8896 68.9549C52.1279 69.2397 45.9493 69.1737 39.4859 68.5752C36.2542 68.2698 32.9565 67.8282 29.6175 67.205C26.2785 66.5859 22.8983 65.7728 19.5345 64.6832C16.1832 63.5812 12.8194 62.2233 9.73219 60.2505C8.20096 59.2558 6.71925 58.1166 5.53058 56.6803C4.93625 55.9622 4.4286 55.1656 4.04476 54.3071C3.68981 53.4363 3.47519 52.4994 3.45868 51.546C3.47519 50.5926 3.68981 49.6598 4.04888 48.7848C4.43272 47.9222 4.94451 47.1298 5.53884 46.4116C6.73164 44.9753 8.21333 43.8362 9.74044 42.8456C12.8277 40.8769 16.1914 39.519 19.5428 38.417C22.9024 37.3274 26.2827 36.5143 29.6217 35.8952C32.9607 35.272 36.2584 34.8304 39.49 34.525C45.9493 33.9265 52.132 33.8605 57.8896 34.1453C63.6513 34.4342 69.0003 35.0698 73.8168 36.0108C78.6293 36.9518 82.9258 38.1446 86.5537 39.5809C90.1775 41.0131 93.1615 42.6434 95.2747 44.4016C96.3313 45.2766 97.1939 46.1516 97.8089 47.0183C97.9781 47.2206 98.0936 47.4517 98.2298 47.6539C98.3619 47.8603 98.4857 48.0584 98.5765 48.2648C98.6756 48.467 98.7664 48.6569 98.8531 48.8385C98.9274 49.0242 98.9851 49.2099 99.0429 49.3791C99.1791 49.7176 99.2287 50.0313 99.2823 50.3037C99.3071 50.4399 99.3401 50.5595 99.3525 50.6751C99.3607 50.7907 99.3649 50.8939 99.3731 50.9847C99.3896 51.3685 99.3937 51.5584 99.3937 51.5584Z" fill="#DBA400"/>
<path d="M81.8899 11.8578C81.8899 11.8578 81.7289 11.7588 81.4194 11.5565C81.341 11.507 81.2543 11.4492 81.1594 11.3873C81.0603 11.3295 80.9447 11.28 80.8209 11.2222C80.5733 11.1025 80.2926 10.9539 79.9459 10.859C79.7726 10.8054 79.5951 10.7393 79.4011 10.6857C79.203 10.6444 78.9967 10.6031 78.7779 10.5577C78.5633 10.5041 78.3322 10.4834 78.0887 10.4628C77.8451 10.4463 77.5975 10.4009 77.3334 10.4091C76.2809 10.3679 75.0633 10.5206 73.7343 10.826C71.0598 11.4286 67.9602 12.7947 64.6213 14.7882C61.2781 16.7776 57.7163 19.4479 54.0347 22.6755C50.3532 25.9072 46.5849 29.7456 42.8373 34.1205C39.0939 38.4996 35.371 43.4193 31.8959 48.888C30.1624 51.6244 28.495 54.497 26.9472 57.5141C25.3954 60.527 23.9714 63.6885 22.7786 67.0027C21.6024 70.317 20.6201 73.7921 20.2899 77.4118C20.1372 79.2154 20.1331 81.0645 20.5293 82.8557C20.7315 83.7472 21.0369 84.6181 21.4703 85.427C21.9284 86.2195 22.5145 86.9417 23.2327 87.5196C23.9714 88.0726 24.8134 88.4647 25.6967 88.7082C26.5881 88.9228 27.5085 89.0095 28.4248 88.9806C30.2573 88.9228 32.0486 88.4565 33.7573 87.8621C37.1788 86.6404 40.3032 84.8203 43.2212 82.8557C46.1351 80.8746 48.8426 78.7078 51.3726 76.4543C53.9068 74.2049 56.2758 71.873 58.4922 69.5121C62.9208 64.7864 66.7592 59.9492 70.0652 55.2358C73.367 50.5142 76.1447 45.9081 78.3569 41.5373C80.5692 37.1665 82.2655 33.0557 83.3592 29.3204C84.4571 25.5935 85.006 22.2462 84.9235 19.5098C84.8822 18.1437 84.7295 16.9303 84.4282 15.9191C84.3745 15.6632 84.2631 15.4321 84.1888 15.2009C84.1104 14.9698 84.032 14.7511 83.9247 14.5571C83.8297 14.359 83.7348 14.165 83.6481 13.9875C83.5491 13.8142 83.4376 13.6573 83.3427 13.5046C83.1611 13.1909 82.9465 12.9557 82.7731 12.7493C82.6823 12.6461 82.6081 12.5471 82.5255 12.4645C82.4388 12.3861 82.3645 12.3201 82.2944 12.254C82.0261 11.9899 81.8899 11.8578 81.8899 11.8578C81.8899 11.8578 82.0344 11.9775 82.315 12.221C82.3852 12.2829 82.4636 12.349 82.5503 12.4274C82.6328 12.5099 82.7112 12.609 82.802 12.7122C82.9795 12.9185 83.2024 13.1538 83.384 13.4675C83.483 13.6202 83.5945 13.777 83.6935 13.9504C83.7843 14.132 83.8793 14.3218 83.9783 14.5241C84.0856 14.7222 84.1682 14.9409 84.2466 15.172C84.325 15.4032 84.4364 15.6343 84.4901 15.8943C84.7996 16.9096 84.9606 18.1272 85.0101 19.4975C85.1051 22.2462 84.5644 25.6059 83.4789 29.3452C82.3934 33.0928 80.7054 37.216 78.4973 41.5992C76.2891 45.9824 73.5156 50.6008 70.2137 55.3307C66.9078 60.0565 63.0694 64.9019 58.6367 69.6401C56.4162 72.005 54.0471 74.3411 51.5088 76.5987C48.9747 78.8605 46.2589 81.0314 43.3409 83.0208C40.4146 84.9937 37.282 86.822 33.8316 88.052C32.1105 88.6546 30.3027 89.1251 28.4331 89.187C27.5003 89.2159 26.5634 89.1292 25.6471 88.9063C24.7391 88.6546 23.8683 88.2501 23.1047 87.6764C22.3618 87.0779 21.7551 86.335 21.2846 85.5178C20.8388 84.6882 20.5251 83.7967 20.3229 82.8887C19.9184 81.0645 19.9267 79.1989 20.0794 77.3829C20.4137 73.7344 21.4043 70.2468 22.5847 66.9243C23.7816 63.6018 25.2096 60.4321 26.7698 57.415C28.3216 54.3938 29.9932 51.5171 31.7308 48.7766C35.2142 43.3038 38.9494 38.3799 42.7011 34.0008C46.4611 29.6259 50.2417 25.7875 53.9357 22.5558C57.6296 19.3282 61.2039 16.662 64.5593 14.6768C67.9107 12.6874 71.0268 11.3295 73.7137 10.7352C75.0551 10.438 76.2768 10.2894 77.3334 10.339C77.5975 10.3307 77.8493 10.3802 78.0928 10.3968C78.3363 10.4174 78.5674 10.4422 78.7862 10.4958C79.0049 10.5412 79.2113 10.5866 79.4094 10.6279C79.6034 10.6857 79.785 10.7517 79.9542 10.8095C80.305 10.9085 80.5857 11.0654 80.8292 11.1851C80.953 11.247 81.0686 11.3006 81.1676 11.3584C81.2625 11.4245 81.3492 11.4822 81.4235 11.5359C81.7372 11.7464 81.8899 11.8578 81.8899 11.8578Z" fill="#DBA400"/>
<path d="M3.0377 71.3323C3.73109 72.0257 3.73109 73.1524 3.0377 73.85C2.34431 74.5433 1.21755 74.5433 0.52004 73.85C-0.173347 73.1566 -0.173347 72.0298 0.52004 71.3323C1.21755 70.6389 2.34431 70.6389 3.0377 71.3323Z" fill="#DBA400"/>
<path d="M103.443 16.1915C103.443 17.1738 102.646 17.9703 101.664 17.9703C100.681 17.9703 99.8849 17.1738 99.8849 16.1915C99.8849 15.2092 100.681 14.4126 101.664 14.4126C102.646 14.4126 103.443 15.205 103.443 16.1915Z" fill="#DBA400"/>
<path d="M14.2763 77.185C14.2763 77.4367 14.0741 77.639 13.8224 77.639C13.5706 77.639 13.3683 77.4367 13.3683 77.185C13.3683 76.9332 13.5706 76.731 13.8224 76.731C14.0741 76.731 14.2763 76.9332 14.2763 77.185Z" fill="#DBA400"/>
<path d="M23.9301 27.3188C23.9301 27.5705 23.7279 27.7728 23.4761 27.7728C23.2243 27.7728 23.0221 27.5705 23.0221 27.3188C23.0221 27.067 23.2243 26.8647 23.4761 26.8647C23.7279 26.8647 23.9301 27.067 23.9301 27.3188Z" fill="#DBA400"/>
<path d="M94.5029 51.5585C94.5029 51.8103 94.3007 52.0125 94.0489 52.0125C93.7971 52.0125 93.5949 51.8103 93.5949 51.5585C93.5949 51.3067 93.7971 51.1045 94.0489 51.1045C94.3007 51.1045 94.5029 51.3067 94.5029 51.5585Z" fill="#DBA400"/>
<path d="M100.789 30.4721C100.789 30.7238 100.587 30.9261 100.335 30.9261C100.083 30.9261 99.8807 30.7238 99.8807 30.4721C99.8807 30.2203 100.083 30.0181 100.335 30.0181C100.587 30.0222 100.789 30.2244 100.789 30.4721Z" fill="#DBA400"/>
<defs>
<linearGradient id="paint0_linear_561_1108" x1="47.6155" y1="54.3582" x2="55.3395" y2="54.3582" gradientUnits="userSpaceOnUse">
<stop stop-color="#4D95E9"/>
<stop offset="0.0323" stop-color="#DBA400"/>
<stop offset="1" stop-color="#E2AA00"/>
</linearGradient>
</defs>
</svg>
