<svg width="140" height="123" viewBox="0 0 140 123" fill="none" xmlns="http://www.w3.org/2000/svg">
<g clip-path="url(#clip0_157_1930)">
<path d="M6.75531 41.9147L0.00485738 38.098C-0.0861988 34.0144 0.817114 29.9702 2.63636 26.3167C4.19271 33.4078 12.3832 36.7815 16.1622 42.973C17.3261 44.9131 18.0402 47.0913 18.2515 49.3461C18.4629 51.6009 18.166 53.8746 17.383 55.9985L17.827 61.4965C14.3381 60.4475 11.1173 58.6517 8.38633 56.2328C5.65541 53.8139 3.47933 50.8294 2.00804 47.485C1.20116 45.6005 0.633887 43.6216 0.31961 41.5949C3.46696 41.9311 6.75531 41.9147 6.75531 41.9147Z" fill="#F2F2F2"/>
<path d="M128.106 111.352L128.313 106.68C130.471 105.522 132.877 104.91 135.324 104.898C131.957 107.662 132.378 112.989 130.095 116.706C129.374 117.86 128.403 118.836 127.256 119.562C126.108 120.288 124.812 120.745 123.464 120.9L120.646 122.632C120.26 120.469 120.345 118.246 120.896 116.118C121.447 113.991 122.452 112.008 123.84 110.308C124.628 109.361 125.531 108.519 126.529 107.799C127.204 109.585 128.106 111.352 128.106 111.352Z" fill="#F2F2F2"/>
<path d="M120.845 120.228L118.293 120.228L117.079 110.348L120.845 110.348L120.845 120.228Z" fill="#FFB6B6"/>
<path d="M121.496 122.711L113.268 122.711V122.606C113.268 121.754 113.606 120.936 114.206 120.333C114.807 119.73 115.621 119.392 116.471 119.392L117.974 118.247L120.778 119.392L121.496 119.392L121.496 122.711Z" fill="#2F2E41"/>
<path d="M108.99 120.228L106.439 120.228L105.225 110.348L108.991 110.348L108.99 120.228Z" fill="#FFB6B6"/>
<path d="M109.641 122.711L101.414 122.711V122.606C101.414 121.754 101.751 120.936 102.352 120.333C102.952 119.73 103.767 119.392 104.616 119.392L106.119 118.247L108.923 119.392L109.641 119.392L109.641 122.711Z" fill="#2F2E41"/>
<path d="M107.886 66.2131L124.483 66.6297C127.635 68.3483 127.683 72.0682 126.65 76.4847C126.65 76.4847 126.999 79.1098 126.302 79.8098C125.604 80.5098 125.256 80.5098 125.604 81.7348C125.953 82.9598 124.111 84.9607 124.335 85.1853C124.558 85.4099 125.081 86.6349 125.081 86.6349L123.338 96.6101C123.338 96.6101 122.118 113.935 121.769 114.285C121.42 114.635 121.072 114.285 121.42 115.16C121.769 116.035 122.118 115.685 121.769 116.035C121.46 116.37 121.169 116.72 120.897 117.085H116.683C116.683 117.085 116.365 115.335 116.365 115.16C116.365 114.985 116.016 113.935 116.016 113.76C116.016 113.585 116.324 113.276 116.324 113.276C116.431 112.92 116.503 112.555 116.539 112.185C116.539 111.835 117.585 98.3601 117.585 98.3601L115.493 80.8598L110.437 98.0101C110.437 98.0101 110.437 113.06 110.089 113.41C109.74 113.76 109.74 113.585 109.914 114.285C110.089 114.985 110.786 114.81 110.263 115.335C109.74 115.86 109.566 114.985 109.74 115.86L109.914 116.735L104.685 116.811C104.685 116.811 103.987 115.335 104.336 114.81C104.685 114.285 104.664 114.429 104.238 113.57C103.813 112.71 103.639 112.535 103.813 112.36C103.987 112.185 103.987 111.255 103.987 111.255L104.859 94.51C104.859 94.51 105.033 76.8347 105.033 76.3097C105.046 76.0396 104.997 75.7701 104.888 75.5224V74.8098L105.556 72.2846L107.886 66.2131Z" fill="#2F2E41"/>
<path d="M117.856 31.5692C120.704 31.5692 123.013 29.2515 123.013 26.3925C123.013 23.5335 120.704 21.2158 117.856 21.2158C115.008 21.2158 112.699 23.5335 112.699 26.3925C112.699 29.2515 115.008 31.5692 117.856 31.5692Z" fill="#FFB6B6"/>
<path d="M115.278 34.9906C114.167 35.6537 113.502 36.8719 113.121 38.1115C112.414 40.4065 111.989 42.7794 111.855 45.1777L111.452 52.3576L106.461 67.6457C110.786 71.3195 127.044 68.4806 127.044 68.4806C127.044 68.4806 127.543 68.3137 127.044 67.8127C126.545 67.3117 126.059 67.7556 126.558 67.2546C127.057 66.7536 126.713 67.3117 126.546 66.8107C126.38 66.3098 126.546 66.6438 126.713 66.4768C126.879 66.3098 125.425 64.8069 125.425 64.8069L126.756 56.0313L128.419 38.3304C126.423 35.8256 122.408 34.349 122.408 34.349L121.371 32.4746L116.185 32.8911L115.278 34.9906Z" fill="#E6E6E6"/>
<path d="M114.57 23.3545C114.77 23.3561 114.969 23.3822 115.162 23.4324C115.543 23.5243 115.929 23.5894 116.319 23.6272C117.513 23.74 118.635 24.2511 119.505 25.0789C120.376 25.9066 120.945 27.0034 121.122 28.194C121.421 27.9317 122.103 27.4493 122.662 27.8976C122.67 27.9047 122.675 27.9084 122.695 27.8991C123.066 27.7223 123.725 25.5467 123.745 23.6312C123.756 22.6145 123.596 21.3162 122.777 20.9051L122.734 20.8834L122.722 20.8363C122.668 20.6076 122.056 20.2172 120.994 19.9134C119.062 19.3612 116.184 18.2855 114.563 19.8685C114.44 20.4022 114.041 21.5443 113.638 21.6737C113.191 21.817 112.806 21.9407 112.745 22.4904C112.694 23.2727 112.698 24.0577 112.756 24.8395C112.907 24.3611 113.204 23.9424 113.605 23.6423C113.89 23.4497 114.227 23.3493 114.57 23.3545Z" fill="#2F2E41"/>
<path d="M104.972 51.9579L113.396 46.5423L109.153 40.8806L104.964 46.0539L91.9103 46.8575C91.567 46.5169 91.1323 46.2838 90.6593 46.1868C90.1863 46.0898 89.6954 46.1331 89.2465 46.3113C88.7976 46.4895 88.41 46.795 88.131 47.1905C87.8521 47.5861 87.6938 48.0545 87.6755 48.5388C87.6571 49.0231 87.7796 49.5022 88.0278 49.9179C88.2761 50.3335 88.6395 50.6676 89.0736 50.8795C89.5078 51.0914 89.994 51.1719 90.473 51.1112C90.9519 51.0505 91.4029 50.8513 91.771 50.5377L104.972 51.9579Z" fill="#FFB6B6"/>
<path d="M121.214 38.9833C121.703 41.9535 112.47 47.6252 112.47 47.6252C112.47 46.9281 106.96 52.1911 106.711 51.6129C106.004 49.9696 105.507 46.0775 104.519 45.4545C103.954 45.0983 107.922 41.7515 107.922 41.7515C107.922 41.7515 109.998 39.6514 112.723 37.0024C113.48 36.2392 114.417 35.6805 115.446 35.3784C116.476 35.0763 117.565 35.0406 118.612 35.2746C118.612 35.2746 120.725 36.0131 121.214 38.9833Z" fill="#E6E6E6"/>
<path d="M138.577 53.3794L133.005 45.0398L127.456 49.4178L132.697 53.5129L133.774 66.5966C133.442 66.9484 133.219 67.3896 133.132 67.8664C133.045 68.3431 133.099 68.8349 133.286 69.2816C133.473 69.7284 133.785 70.1109 134.185 70.3825C134.585 70.6541 135.055 70.8031 135.538 70.8112C136.02 70.8193 136.495 70.6863 136.904 70.4284C137.312 70.1704 137.637 69.7986 137.839 69.3584C138.041 68.9182 138.111 68.4285 138.04 67.9491C137.97 67.4697 137.762 67.0212 137.442 66.6585L138.577 53.3794Z" fill="#FFB6B6"/>
<path d="M125.311 37.353C128.259 36.7994 134.103 45.9454 134.103 45.9454C133.409 45.9603 138.767 51.3794 138.196 51.6412C136.575 52.3855 132.709 52.9668 132.109 53.9713C131.766 54.5458 128.349 50.6351 128.349 50.6351C128.349 50.6351 126.214 48.5955 123.518 45.9166C122.742 45.1734 122.165 44.2451 121.843 43.2183C121.52 42.1914 121.461 41.0993 121.672 40.0435C121.672 40.0435 122.363 37.9066 125.311 37.353Z" fill="#E6E6E6"/>
<path d="M140 122.752C140 122.785 139.994 122.817 139.981 122.847C139.969 122.877 139.951 122.905 139.928 122.928C139.905 122.951 139.878 122.969 139.848 122.981C139.818 122.994 139.786 123 139.753 123H81.6032C81.5378 123 81.475 122.974 81.4287 122.927C81.3824 122.881 81.3564 122.818 81.3564 122.752C81.3564 122.686 81.3824 122.623 81.4287 122.577C81.475 122.531 81.5378 122.504 81.6032 122.504H139.753C139.786 122.504 139.818 122.511 139.848 122.523C139.878 122.535 139.905 122.554 139.928 122.577C139.951 122.6 139.969 122.627 139.981 122.657C139.994 122.687 140 122.72 140 122.752Z" fill="#CCCCCC"/>
<path d="M86.1308 47.6489H15.558C14.4554 47.6502 13.3984 48.0904 12.6187 48.8731C11.8391 49.6557 11.4005 50.7169 11.3993 51.8237V95.9314C11.4005 97.0383 11.8391 98.0994 12.6187 98.8821C13.3984 99.6647 14.4554 100.105 15.558 100.106H86.1308C87.2334 100.105 88.2904 99.6647 89.0701 98.8821C89.8498 98.0994 90.2883 97.0383 90.2896 95.9314V51.8237C90.2884 50.7169 89.8498 49.6557 89.0701 48.8731C88.2905 48.0904 87.2334 47.6502 86.1308 47.6489Z" fill="#E2AA00"/>
<path d="M86.1308 47.6489H15.558C14.4554 47.6502 13.3984 48.0904 12.6187 48.8731C11.8391 49.6557 11.4005 50.7169 11.3993 51.8237V95.9314C11.4005 97.0383 11.8391 98.0994 12.6187 98.8821C13.3984 99.6647 14.4554 100.105 15.558 100.106H86.1308C87.2334 100.105 88.2904 99.6647 89.0701 98.8821C89.8498 98.0994 90.2883 97.0383 90.2896 95.9314V51.8237C90.2884 50.7169 89.8498 49.6557 89.0701 48.8731C88.2905 48.0904 87.2334 47.6502 86.1308 47.6489ZM87.4956 79.332C87.4787 83.8225 85.7093 88.1274 82.567 91.3233C79.4247 94.5192 75.1598 96.3515 70.6872 96.4271C63.5264 96.5206 74.6493 96.5571 66.0128 96.5571C46.2638 96.5571 25.671 96.3677 17.9877 96.2448C16.9768 96.2239 16.0141 95.8071 15.3051 95.0834C14.5962 94.3597 14.1971 93.3864 14.1932 92.3714V51.827C14.1936 51.4635 14.3374 51.115 14.5931 50.8577C14.8488 50.6003 15.1957 50.4551 15.5577 50.4539H86.128C86.49 50.4543 86.8371 50.5986 87.0934 50.8552C87.3496 51.1119 87.4943 51.4599 87.4956 51.8233V79.332Z" fill="#3F3D56"/>
<path d="M77.4434 22.2505H23.6744C23.1986 22.2512 22.7347 22.3992 22.3459 22.6745C21.9571 22.9497 21.6624 23.3387 21.502 23.7883L13.1978 47.1762C13.0738 47.5253 13.0352 47.8991 13.0851 48.2663C13.135 48.6335 13.2719 48.9833 13.4845 49.2864C13.697 49.5894 13.9789 49.8367 14.3065 50.0077C14.634 50.1786 14.9977 50.2681 15.3669 50.2686L87.48 50.3971H87.4832C87.8648 50.3971 88.2405 50.302 88.5765 50.1204C88.9125 49.9387 89.1984 49.6762 89.4085 49.3564C89.6185 49.0366 89.7463 48.6694 89.7802 48.2878C89.8141 47.9062 89.7532 47.5222 89.6029 47.17L79.5631 23.6536C79.3856 23.237 79.0901 22.8819 78.7133 22.6324C78.3364 22.3829 77.8948 22.2501 77.4434 22.2505Z" fill="#3F3D56"/>
<path d="M89.7896 47.6777C89.7894 47.9913 89.7259 48.3016 89.6029 48.5899L79.5637 66.6921C79.385 67.1079 79.0891 67.4621 78.7123 67.7111C78.3356 67.9601 77.8946 68.0931 77.4435 68.0937H23.6752C23.1993 68.0933 22.7351 67.9454 22.346 67.6704C21.9569 67.3953 21.6618 67.0064 21.501 66.5568L13.1983 48.5836C13.0966 48.2973 13.052 47.9936 13.0672 47.69C13.0824 47.3864 13.1571 47.0887 13.2869 46.8141C13.4168 46.5394 13.5993 46.2931 13.824 46.0893C14.0488 45.8855 14.3113 45.7282 14.5966 45.6263C14.8435 45.5368 15.1039 45.491 15.3663 45.4909L24.1752 45.4743L27.7705 45.468L75.0805 45.3847L78.6779 45.3785L87.4806 45.3618H87.4826C88.0944 45.3619 88.6812 45.6059 89.1138 46.0402C89.5464 46.4745 89.7895 47.0635 89.7896 47.6777Z" fill="#3F3D56"/>
<path d="M20.8487 80.7349C21.9149 80.7349 36.5566 81.6331 36.5566 82.7035C36.5566 83.7738 21.9149 84.6109 20.8487 84.6109C20.3367 84.6109 19.8457 84.4067 19.4836 84.0433C19.1215 83.6798 18.9182 83.1869 18.9182 82.6729C18.9182 82.1589 19.1215 81.666 19.4836 81.3025C19.8457 80.9391 20.3367 80.7349 20.8487 80.7349Z" fill="#3F3D56"/>
<path d="M74.095 8.02246H28.7581C27.543 8.02387 26.3782 8.50902 25.519 9.37148C24.6599 10.2339 24.1766 11.4033 24.1752 12.623V68.0939H77.4435C77.8809 68.0953 78.3094 67.9702 78.6779 67.7336V12.623C78.6765 11.4033 78.1932 10.2339 77.334 9.37148C76.4749 8.50902 75.31 8.02387 74.095 8.02246Z" fill="#E6E6E6"/>
<path d="M56.7905 11.7524H31.9447C30.8383 11.7535 29.7776 12.1951 28.995 12.9802C28.2125 13.7653 27.7722 14.83 27.7705 15.9406V68.0939H75.0805V30.1129C75.0749 25.2452 73.1461 20.5784 69.7173 17.1363C66.2885 13.6943 61.6396 11.7581 56.7905 11.7524Z" fill="white"/>
<path d="M67.0205 63.4622H35.8305C35.5609 63.4622 35.3023 63.5697 35.1117 63.7611C34.921 63.9524 34.8139 64.212 34.8139 64.4826C34.8139 64.7533 34.921 65.0129 35.1117 65.2042C35.3023 65.3956 35.5609 65.5031 35.8305 65.5031H67.0205C67.2901 65.5031 67.5487 65.3956 67.7394 65.2042C67.93 65.0129 68.0371 64.7533 68.0371 64.4826C68.0371 64.212 67.93 63.9524 67.7394 63.7611C67.5487 63.5697 67.2901 63.4622 67.0205 63.4622Z" fill="#E4E4E4"/>
<path d="M67.0205 59.426H35.8305C35.5606 59.426 35.3018 59.5337 35.1109 59.7252C34.9201 59.9168 34.8129 60.1766 34.8129 60.4476C34.8129 60.7185 34.9201 60.9783 35.1109 61.1699C35.3018 61.3615 35.5606 61.4691 35.8305 61.4691H67.0205C67.2904 61.4691 67.5493 61.3615 67.7401 61.1699C67.9309 60.9783 68.0381 60.7185 68.0381 60.4476C68.0381 60.1766 67.9309 59.9168 67.7401 59.7252C67.5493 59.5337 67.2904 59.426 67.0205 59.426Z" fill="#E4E4E4"/>
<path d="M49.3508 55.3918H35.8305C35.5609 55.3918 35.3023 55.4994 35.1117 55.6907C34.921 55.8821 34.8139 56.1417 34.8139 56.4123C34.8139 56.683 34.921 56.9425 35.1117 57.1339C35.3023 57.3253 35.5609 57.4328 35.8305 57.4328H49.3508C49.6205 57.4328 49.879 57.3253 50.0697 57.1339C50.2603 56.9425 50.3674 56.683 50.3674 56.4123C50.3674 56.1417 50.2603 55.8821 50.0697 55.6907C49.879 55.4994 49.6205 55.3918 49.3508 55.3918Z" fill="#E4E4E4"/>
<path d="M67.0205 46.9407H35.8305C35.5606 46.9407 35.3018 47.0483 35.1109 47.2399C34.9201 47.4314 34.8129 47.6913 34.8129 47.9622C34.8129 48.2331 34.9201 48.493 35.1109 48.6845C35.3018 48.8761 35.5606 48.9837 35.8305 48.9837H67.0205C67.2904 48.9837 67.5493 48.8761 67.7401 48.6845C67.9309 48.493 68.0381 48.2331 68.0381 47.9622C68.0381 47.6913 67.9309 47.4314 67.7401 47.2399C67.5493 47.0483 67.2904 46.9407 67.0205 46.9407Z" fill="#E4E4E4"/>
<path d="M67.0205 42.9065H35.8305C35.5609 42.9065 35.3023 43.014 35.1117 43.2054C34.921 43.3968 34.8139 43.6563 34.8139 43.927C34.8139 44.1976 34.921 44.4572 35.1117 44.6486C35.3023 44.84 35.5609 44.9475 35.8305 44.9475H67.0205C67.2901 44.9475 67.5487 44.84 67.7394 44.6486C67.93 44.4572 68.0371 44.1976 68.0371 43.927C68.0371 43.6563 67.93 43.3968 67.7394 43.2054C67.5487 43.014 67.2901 42.9065 67.0205 42.9065Z" fill="#E4E4E4"/>
<path d="M49.3509 38.8704H35.8305C35.5606 38.8704 35.3018 38.978 35.1109 39.1696C34.9201 39.3611 34.8129 39.621 34.8129 39.8919C34.8129 40.1628 34.9201 40.4226 35.1109 40.6142C35.3018 40.8058 35.5606 40.9134 35.8305 40.9134H49.3509C49.6207 40.9134 49.8796 40.8058 50.0704 40.6142C50.2613 40.4226 50.3685 40.1628 50.3685 39.8919C50.3685 39.621 50.2613 39.3611 50.0704 39.1696C49.8796 38.978 49.6207 38.8704 49.3509 38.8704Z" fill="#E4E4E4"/>
<path d="M67.0205 30.4189H35.8305C35.5606 30.4189 35.3018 30.5266 35.1109 30.7181C34.9201 30.9097 34.8129 31.1695 34.8129 31.4405C34.8129 31.7114 34.9201 31.9712 35.1109 32.1628C35.3018 32.3544 35.5606 32.462 35.8305 32.462H67.0205C67.2904 32.462 67.5493 32.3544 67.7401 32.1628C67.9309 31.9712 68.0381 31.7114 68.0381 31.4405C68.0381 31.1695 67.9309 30.9097 67.7401 30.7181C67.5493 30.5266 67.2904 30.4189 67.0205 30.4189Z" fill="#E2AA00"/>
<path d="M67.0205 26.385H35.8305C35.5606 26.385 35.3018 26.4926 35.1109 26.6842C34.9201 26.8758 34.8129 27.1356 34.8129 27.4065C34.8129 27.6775 34.9201 27.9373 35.1109 28.1289C35.3018 28.3204 35.5606 28.4281 35.8305 28.4281H67.0205C67.2904 28.4281 67.5493 28.3204 67.7401 28.1289C67.9309 27.9373 68.0381 27.6775 68.0381 27.4065C68.0381 27.1356 67.9309 26.8758 67.7401 26.6842C67.5493 26.4926 67.2904 26.385 67.0205 26.385Z" fill="#E2AA00"/>
<path d="M49.3509 22.3489H35.8305C35.5606 22.3489 35.3018 22.4565 35.1109 22.6481C34.9201 22.8397 34.8129 23.0995 34.8129 23.3704C34.8129 23.6413 34.9201 23.9012 35.1109 24.0927C35.3018 24.2843 35.5606 24.3919 35.8305 24.3919H49.3509C49.6207 24.3919 49.8796 24.2843 50.0704 24.0927C50.2613 23.9012 50.3685 23.6413 50.3685 23.3704C50.3685 23.0995 50.2613 22.8397 50.0704 22.6481C49.8796 22.4565 49.6207 22.3489 49.3509 22.3489Z" fill="#E2AA00"/>
<path d="M76.9782 15.8958C81.3508 15.8958 84.8956 12.3374 84.8956 7.94791C84.8956 3.5584 81.3508 0 76.9782 0C72.6055 0 69.0608 3.5584 69.0608 7.94791C69.0608 12.3374 72.6055 15.8958 76.9782 15.8958Z" fill="#E2AA00"/>
<path d="M75.8981 12.0845C75.7613 12.0845 75.6265 12.0525 75.5042 11.9911C75.3819 11.9297 75.2756 11.8406 75.1936 11.7308L73.0336 8.83962C72.9638 8.74677 72.913 8.64101 72.884 8.5284C72.855 8.4158 72.8485 8.29856 72.8647 8.1834C72.8809 8.06825 72.9196 7.95744 72.9786 7.85732C73.0376 7.75721 73.1156 7.66976 73.2083 7.59998C73.301 7.5302 73.4065 7.47947 73.5188 7.45068C73.631 7.4219 73.7478 7.41563 73.8625 7.43224C73.9771 7.44885 74.0874 7.48801 74.187 7.54747C74.2866 7.60694 74.3735 7.68554 74.4427 7.77878L75.8559 9.67008L79.4853 4.20498C79.6149 4.00988 79.8163 3.87444 80.0454 3.82845C80.2744 3.78247 80.5123 3.8297 80.7066 3.95977C80.901 4.08984 81.0359 4.29208 81.0817 4.52201C81.1275 4.75193 81.0805 4.99071 80.9509 5.18581L76.6309 11.6908C76.5528 11.8084 76.4477 11.9055 76.3244 11.974C76.2012 12.0424 76.0634 12.0802 75.9226 12.0842C75.9144 12.0843 75.9062 12.0845 75.8981 12.0845Z" fill="white"/>
</g>
<defs>
<clipPath id="clip0_157_1930">
<rect width="140" height="123" fill="white"/>
</clipPath>
</defs>
</svg>
